# xmcd
#
# Track frame offsets:
#	150
#	13250
#	24489
#	38217
#	59154
#	72549
#	85480
#	100259
#	111913
#	122980
#	135724
#
# Disc length: 1999 seconds
#
# Revision: 2
# Processed by: cddbd v1.5.2PL0 Copyright (c) Steve Scherf et al.
# Submitted via: audiograbber 1.83.01
#
DISCID=a607cd0b
DTITLE=Elvis Presley - Love Letters From Elvis - 20 Original Albums  [CD10)
DYEAR=1900
DGENRE=Oldies
TTITLE0=Love Letters
TTITLE1=When I'm Over You
TTITLE2=If I Were You
TTITLE3=Get My Mojo Working
TTITLE4=Heart Of Rome
TTITLE5=Only Believe
TTITLE6=This Is Our Dance
TTITLE7=Cindy, Cindy
TTITLE8=I'll Never Know
TTITLE9=It Ain't No Big Thing (But It's Growing)
TTITLE10=Life
EXTD=
EXTT0=
EXTT1=
EXTT2=
EXTT3=
EXTT4=
EXTT5=
EXTT6=
EXTT7=
EXTT8=
EXTT9=
EXTT10=
PLAYORDER=
